PathFileType	4	(X/Y/Z)	S01_0002_Gait_markers.trc
DataRate	CameraRate	NumFrames	NumMarkers	Units	OrigDataRate	OrigDataStartFrame	OrigNumFrames
250.000000	250.000000	4	54	mm	250.000000	165	330
Frame#	Time	HEAD_ANT			R_HEAD			L_HEAD			C7			R_BACK			L_BACK			STERNUM			R_ACROMION			R_HUM_PROX			R_HUM_ANT			R_HUM_POST			R_ELBOW_LAT			R_ELBOW_MED			R_FOREARM			R_WIRST_LAT			R_WRITS_MED			R_HAND			L_ACROMION			L_HUM_PROX			L_HUM_ANT			L_HUM_POST			L_ELBOW_LAT			L_ELBOW_MED			L_FOREARM			L_WRIST_LAT			L_WIRST_MED			L_HAND			R_ILIAC			SACRUM			L_ILIAC			R_GTROCH			R_THIGH__1			R_THIGH_2			R_THIGH_3			R_THIGH_4			R_SHANK_1			R_SHANK_2			R_SHANK_3			R_SHANK_4			R_HEEL			R_FOOT_LAT			R_FOOT_MED			L_GTROCH			L_THIGH_1			L_THIGH_2			L_THIGH_3			L_THIGH_4			L_SHANK_1			L_SHANK_2			L_SHANK_3			L_SHANK_4			L_HEEL			L_FOOT_LAT			L_FOOT_MED			
		X1	Y1	Z1	X2	Y2	Z2	X3	Y3	Z3	X4	Y4	Z4	X5	Y5	Z5	X6	Y6	Z6	X7	Y7	Z7	X8	Y8	Z8	X9	Y9	Z9	X10	Y10	Z10	X11	Y11	Z11	X12	Y12	Z12	X13	Y13	Z13	X14	Y14	Z14	X15	Y15	Z15	X16	Y16	Z16	X17	Y17	Z17	X18	Y18	Z18	X19	Y19	Z19	X20	Y20	Z20	X21	Y21	Z21	X22	Y22	Z22	X23	Y23	Z23	X24	Y24	Z24	X25	Y25	Z25	X26	Y26	Z26	X27	Y27	Z27	X28	Y28	Z28	X29	Y29	Z29	X30	Y30	Z30	X31	Y31	Z31	X32	Y32	Z32	X33	Y33	Z33	X34	Y34	Z34	X35	Y35	Z35	X36	Y36	Z36	X37	Y37	Z37	X38	Y38	Z38	X39	Y39	Z39	X40	Y40	Z40	X41	Y41	Z41	X42	Y42	Z42	X43	Y43	Z43	X44	Y44	Z44	X45	Y45	Z45	X46	Y46	Z46	X47	Y47	Z47	X48	Y48	Z48	X49	Y49	Z49	X50	Y50	Z50	X51	Y51	Z51	X52	Y52	Z52	X53	Y53	Z53	X54	Y54	Z54	

166	0.66	1109.126708984375	1713.531616210938	-331.2865600585934	1052.630004882812	1662.6142578125	-251.8556976318356	1050.106567382812	1662.211181640625	-399.4046630859372	912.9633178710938	1492.182983398438	-319.7511291503903	843.7601318359375	1298.043823242188	-246.9143218994138	837.5824584960938	1296.23046875	-382.8362121582028	1090.178100585938	1327.629516601562	-327.0929565429685	1001.352172851562	1443.720581054688	-152.6614837646481	982.39599609375	1284.640991210938	-58.71134185790987	1049.324340820312	1202.40478515625	-66.77301025390598	930.78857421875	1198.08740234375	-36.59795761108372	986.3138427734375	1093.471557617188	-38.86244964599585	948.4976196289062	1086.89208984375	-114.539611816406	1127.336547851562	940.8220825195312	-75.52641296386697	1173.154296875	891.1427612304688	-128.9916534423826	1122.442504882812	847.9828491210938	-81.01918029785138	1210.278442382812	806.2936401367188	-83.59864044189435	981.5831909179688	1446.814819335938	-492.4016418457028	931.0039672851562	1281.400024414063	-581.4639892578122	982.9375	1194.336181640625	-590.2567749023435	859.241943359375	1210.269775390625	-594.5138549804685	906.0438842773438	1099.583984375	-607.5544433593748	863.8710327148438	1101.294555664063	-543.6256713867185	983.6838989257812	911.6300048828126	-610.3262939453123	1016.169616699219	845.8911132812501	-564.0297851562498	956.6349487304688	833.1069335937501	-618.0900878906248	1022.760498046875	763.3482666015626	-614.8029174804686	976.0100708007812	1044.278076171875	-148.1607666015623	857.18603515625	1013.564880371094	-324.9521179199216	982.0928344726562	1036.491088867188	-492.2189331054685	913.4281005859375	912.9620971679688	-138.0833587646482	866.5271606445312	647.1892700195312	-157.4067993164061	924.7518310546875	645.56787109375	-149.2977905273436	900.2198486328125	545.6028442382812	-182.0955963134764	842.2122802734375	572.5126342773438	-175.7578124999999	718.1734619140625	375.8022766113282	-176.4149169921874	754.8905639648438	330.5051879882813	-190.7396850585937	708.2974243164062	260.1344604492188	-211.2318267822265	656.8753662109375	297.7015075683594	-200.6746520996093	516.1521606445312	144.9285583496094	-284.5979614257812	635.0538330078125	23.63467216491704	-213.0361175537109	695.716064453125	29.13597869873054	-308.9182739257812	965.5812377929688	920.5054931640626	-499.6292724609373	1142.512329101562	673.0649414062501	-483.0531921386717	1086.693603515625	670.5934448242189	-504.698516845703	1108.387817382812	570.7694702148439	-466.8373107910155	1165.883178710938	597.3296508789064	-453.6091918945311	1216.089721679688	332.6760253906251	-455.6933898925781	1167.579833984375	295.3861389160157	-458.0234680175781	1191.111694335938	212.0745239257813	-440.7933044433593	1250.13623046875	237.3861236572266	-436.1827087402343	1211.312133789062	30.37905693054207	-372.7254333496094	1386.242919921875	44.46195602417002	-444.1614074707031	1420.556884765625	66.39463806152351	-351.4385986328125	
167	0.664	1114.876831054688	1713.486694335938	-332.5632324218746	1058.611206054688	1662.662719726562	-252.9162292480465	1055.911743164062	1661.984130859375	-400.4395141601559	918.6947021484375	1491.951538085938	-320.7999572753903	849.9512329101562	1297.9619140625	-248.1103363037107	843.9014282226562	1295.962524414062	-383.6434936523435	1096.472778320312	1327.751342773438	-327.7671813964841	1007.256774902344	1443.603271484375	-153.6036071777341	988.1742553710938	1284.566040039062	-59.60614395141573	1054.8212890625	1202.301879882812	-67.23223114013645	936.2435913085938	1198.15771484375	-37.4676666259763	991.5169067382812	1093.3671875	-39.63543701171851	954.110107421875	1086.8828125	-115.3414077758787	1132.188354492188	940.29052734375	-75.64444732665994	1177.832885742188	890.0465698242188	-128.7957763671873	1126.848876953125	847.1023559570312	-80.85402679443341	1214.426025390625	805.180419921875	-83.03503417968732	987.7228393554688	1446.495971679688	-493.5305786132809	937.4088134765625	1280.906005859375	-582.1386108398434	989.399169921875	1193.823486328125	-590.7061767578123	865.7193603515625	1209.597290039063	-595.092102050781	912.3705444335938	1098.954345703125	-608.0139160156248	870.5386352539062	1100.714965820313	-543.9720458984373	990.152099609375	910.9706420898439	-610.7235717773435	1022.700012207031	845.2520141601564	-564.4218139648435	963.0219116210938	832.6035766601564	-618.4288940429685	1029.053100585938	762.5879516601564	-614.9956665039061	982.368896484375	1044.226684570312	-147.8002777099607	863.642578125	1013.436401367188	-325.3130798339841	988.75439453125	1036.132080078125	-492.6515502929685	919.8665771484375	912.4740600585938	-138.4594116210936	873.80224609375	646.4515991210938	-157.7346038818358	931.9893798828125	644.8889770507812	-149.7889404296874	907.5390014648438	544.8289184570312	-182.0778656005858	849.73046875	571.6229248046875	-176.0104064941405	724.5513916015625	376.5911865234376	-176.2445526123046	760.5833740234375	330.7175903320313	-190.3545989990234	712.8775024414062	260.8712158203126	-210.6789550781249	662.018310546875	299.2670898437501	-200.0921020507812	519.4791870117188	148.7273864746094	-283.4774475097656	635.7047119140625	24.3153629302979	-213.0461578369141	695.832275390625	29.09639167785651	-308.9312744140625	972.5527954101562	920.3202514648439	-500.3514709472654	1149.5927734375	673.8247070312501	-482.7870483398436	1093.932495117188	671.4594116210939	-504.0198974609373	1114.783569335938	571.4894409179689	-466.6766967773436	1172.369262695312	597.7296142578126	-453.3617248535155	1221.404052734375	332.9597167968751	-455.4767456054687	1172.628662109375	296.059295654297	-457.0282897949218	1196.463012695312	212.593246459961	-440.3165283203124	1255.298217773438	237.6937713623048	-436.1575927734374	1213.139892578125	31.63649749755868	-372.994140625	1388.651733398438	41.6111946105958	-444.2989501953125	1423.658081054688	63.71701812744148	-351.4286499023438	
168	0.668	1120.722290039062	1713.652709960938	-333.8487854003902	1064.317138671875	1662.696411132812	-254.0305175781246	1061.721923828125	1661.86279296875	-401.5461425781247	924.6620483398438	1491.855590820312	-321.9561767578122	856.0811767578125	1297.85986328125	-249.2371978759763	850.0838623046875	1295.9189453125	-384.536437988281	1102.644653320312	1327.893920898438	-328.719299316406	1013.075256347656	1443.608764648438	-154.4773101806637	993.7958374023438	1284.577392578125	-60.23904800415011	1060.259521484375	1202.286865234375	-67.72551727294895	941.6367797851562	1198.312744140625	-38.49283599853489	996.9669799804688	1093.317626953125	-40.33008575439429	959.1310424804688	1086.643920898438	-115.7029266357419	1136.935180664062	939.280517578125	-75.64699554443338	1182.641967773438	888.9473876953125	-128.4106292724607	1131.146362304688	846.4608154296875	-80.71248626708966	1218.509887695312	804.0054931640625	-82.2045364379881	993.921875	1446.2138671875	-494.4170532226559	943.8268432617188	1280.48583984375	-582.9163818359372	995.9104614257812	1193.440795898438	-591.2318725585935	872.253173828125	1209.037963867188	-595.8768310546873	919.324462890625	1098.324340820313	-608.1552124023435	877.3394165039062	1100.109497070313	-544.3178710937498	996.6255493164062	910.2874145507814	-610.541320800781	1029.135009765625	844.5834960937501	-564.6203613281248	969.4346313476562	832.3809204101564	-620.0411376953123	1035.348266601562	762.0314331054689	-615.4828491210936	989.5557861328125	1043.642333984375	-148.8583679199216	870.2049560546875	1013.418151855469	-325.6435241699216	995.6544799804688	1036.031372070312	-493.3822937011716	926.2677612304688	911.7459716796875	-139.0912628173826	881.19775390625	645.6883544921875	-158.3658599853514	939.2559204101562	644.0033569335938	-150.0983123779295	915.1822509765625	544.0142211914062	-182.2999267578124	857.2837524414062	570.8973999023438	-176.3230743408202	730.9788208007812	377.4256896972657	-176.0255889892577	766.379638671875	331.1688842773438	-189.9013366699218	717.716796875	261.7067260742188	-210.2776641845703	667.5780639648438	300.8833923339844	-199.2634887695312	523.1376342773438	152.6354217529297	-282.2322998046874	636.5956420898438	25.10534477233891	-213.0060577392578	695.9480590820312	29.07910537719733	-308.9425048828125	979.4970092773438	920.4114990234376	-501.1226806640623	1156.525146484375	674.5244750976564	-482.4037170410155	1101.032836914062	672.6093750000001	-503.7532653808592	1121.257202148438	572.2081909179689	-466.741485595703	1178.823974609375	598.5520019531251	-453.086700439453	1227.39453125	333.5374755859376	-455.3438110351562	1178.455932617188	297.0129699707032	-456.6494140624999	1201.632080078125	213.5367126464845	-440.2450866699218	1260.92626953125	238.1010742187501	-436.5776672363281	1214.68359375	32.71238327026376	-373.3077697753906	1390.251953125	39.33564758300791	-444.6077575683594	1426.012084960938	61.33673477172859	-351.4892883300781	
169	0.672	1126.553955078125	1714.06201171875	-334.9073486328121	1070.072265625	1662.9892578125	-255.0597839355465	1067.6025390625	1661.957397460938	-402.672210693359	930.6323852539062	1491.817260742188	-322.9595947265622	862.2681884765625	1297.804321289062	-250.3200378417966	856.3334350585938	1295.984985351562	-385.3572998046872	1108.874267578125	1328.08349609375	-329.6127014160153	1018.927978515625	1443.796020507812	-155.4437561035153	999.57080078125	1284.979858398438	-61.09280776977511	1065.744750976562	1202.266723632812	-68.25698852539035	947.014404296875	1198.452392578125	-39.37456893920872	1002.443359375	1093.39306640625	-41.07372665405249	965.3828125	1086.851196289062	-116.8580169677732	1141.68505859375	938.681884765625	-75.60166931152322	1187.442504882812	887.8211059570312	-128.2182464599607	1135.481079101562	846.1035766601562	-80.39045715332013	1222.4404296875	802.8617553710938	-81.48457336425763	1000.086791992188	1446.011840820312	-495.3410644531247	950.280029296875	1280.057495117188	-583.6304931640622	1002.45166015625	1193.00146484375	-591.9006347656248	878.8695068359375	1208.610473632813	-596.372863769531	926.5971069335938	1097.9541015625	-608.5454101562498	883.9053344726562	1099.644409179688	-544.940979003906	1002.999938964844	909.8740844726564	-611.4539794921873	1035.466430664062	844.1997680664064	-564.8942260742185	975.7340087890625	831.6098632812501	-619.134582519531	1041.699829101562	761.4039306640626	-615.5980834960936	996.0444946289062	1043.623779296875	-148.6601867675779	876.6870727539062	1013.648071289063	-325.9153137207029	1002.848815917969	1035.827758789062	-493.9252624511716	932.7866821289062	911.2258911132812	-139.6177368164061	888.662353515625	644.79931640625	-158.8610076904295	946.81005859375	643.3382568359375	-150.2877349853514	923.0449829101562	543.2191772460938	-182.4457855224608	865.0623168945312	569.8222045898438	-176.6865692138671	737.709228515625	378.1926879882813	-175.6405029296874	772.49267578125	331.3643798828126	-189.6967315673827	722.8569946289062	262.7019348144532	-209.5308227539062	673.3333129882812	302.3608703613282	-198.988540649414	527.1127319335938	156.6526489257813	-280.8437499999999	637.5088500976562	25.86730194091801	-212.9862060546875	696.1026000976562	29.01442909240729	-308.9283447265625	986.4238891601562	920.6600952148439	-501.937072753906	1163.299072265625	675.2282104492189	-480.6530151367186	1108.08984375	673.5178222656251	-502.3153076171873	1127.875854492188	573.2103271484376	-466.8892517089843	1185.500854492188	598.7912597656251	-452.8459472656249	1233.771484375	334.1993103027345	-455.2622985839843	1184.309204101562	298.3154296875001	-456.3258056640624	1206.817993164062	214.4118041992188	-440.4682312011718	1266.18359375	238.4789276123048	-436.3517150878906	1216.022583007812	33.46551513671884	-373.7908325195312	1391.4736328125	37.59532928466807	-444.4486389160156	1427.711669921875	58.65230941772469	-350.4148254394531	
